#!OML:ASF X:\für Bonn\!DataBase\2005_08_10_Bjorn_Final\c3d\bjorn.ASF
:FULLY-SPECIFIED
:DEGREES
76
root 2.42198 17.9203 -0.241617 -219.514 10.5769 174.744
lowerback 10.1848 -1.00668 7.50707
upperback 18.7343 3.05646 -0.993761
thorax 15.7363 4.51306 -4.66792
lowerneck 14.2064 2.74807 2.82482
upperneck 9.48872 6.38127 -9.98589
head 1.08127 4.04516 -4.00897
rclavicle -2.18663e-014 1.27222e-014
rhumerus -8.37034 13.1979 -70.9048
rradius 75.9146
rwrist -10.4692
rhand -8.27747 16.5389
rfingers 7.12502
rthumb 17.6418 -12.6807
lclavicle -2.18663e-014 1.27222e-014
lhumerus -54.4188 -29.2565 75.3779
lradius 74.0316
lwrist 20.7456
lhand -51.8337 -15.4502
lfingers 7.12502
lthumb -24.3481 13.0231
rfemur 31.6078 4.32675 16.57
rtibia 33.9452
rfoot -16.2654 28.0463
rtoes 7.47994
lfemur -52.9074 17.528 -4.12443
ltibia 22.0071
lfoot -8.82939 14.6156
ltoes -18.9226
77
root 2.41094 17.879 -0.282835 -219.688 10.8601 174.466
lowerback 9.72314 -0.839605 7.76826
upperback 18.4635 3.09429 -1.04295
thorax 15.6972 4.49347 -4.87594
lowerneck 14.3048 2.75989 2.78186
upperneck 10.0429 6.58825 -10.1709
head 1.27429 4.18846 -4.06817
rclavicle -1.49089e-016 1.03368e-014
rhumerus -9.77988 12.7008 -71.2421
rradius 77.2746
rwrist -10.6878
rhand -8.58277 16.8541
rfingers 7.12502
rthumb 17.348 -12.3917
lclavicle -1.49089e-016 1.03368e-014
lhumerus -55.7157 -28.2375 76.2152
lradius 73.738
lwrist 21.2323
lhand -51.2471 -16.9244
lfingers 7.12502
lthumb -23.7856 11.6233
rfemur 31.4046 4.53178 16.258
rtibia 34.7298
rfoot -16.3361 28.5303
rtoes 8.77834
lfemur -51.4018 15.7164 -2.51017
ltibia 23.2601
lfoot -8.25709 17.9721
ltoes -19.4902
78
root 2.39831 17.8289 -0.323473 -219.822 11.044 174.155
lowerback 9.31779 -0.682444 7.92114
upperback 18.1978 3.13653 -1.11847
thorax 15.6256 4.4672 -5.05529
lowerneck 14.182 2.79562 2.76117
upperneck 10.6437 6.83096 -10.3731
head 1.52641 4.33886 -4.13052
rclavicle 7.92654e-014 -4.05521e-014
rhumerus -11.274 11.9831 -71.6421
rradius 78.4586
rwrist -10.6052
rhand -8.73763 17.1435
rfingers 7.12502
rthumb 17.199 -12.1153
lclavicle 7.92654e-014 -4.05521e-014
lhumerus -56.6321 -27.3427 76.9456
lradius 73.1767
lwrist 21.6764
lhand -50.883 -18.1833
lfingers 7.12502
lthumb -23.4364 10.4095
rfemur 31.111 4.76067 15.9268
rtibia 35.6483
rfoot -16.6218 28.8925
rtoes 9.80064
lfemur -49.7296 13.7346 -1.1943
ltibia 24.398
lfoot -6.2859 21.0442
ltoes -17.5155
79
root 2.38641 17.7754 -0.36287 -219.902 11.1338 173.849
lowerback 8.91481 -0.541839 7.99882
upperback 17.969 3.17942 -1.21358
thorax 15.5989 4.44439 -5.20994
lowerneck 13.9549 2.84778 2.69749
upperneck 11.2831 7.09642 -10.8123
head 1.58246 4.46262 -3.88919
rclavicle -1.43373e-014 -3.18055e-014
rhumerus -12.7912 11.1515 -71.9978
rradius 79.5407
rwrist -10.3083
rhand -8.86053 17.1631
rfingers 7.12502
rthumb 17.0807 -12.106
lclavicle -1.43373e-014 -3.18055e-014
lhumerus -57.1348 -26.5198 77.4999
lradius 72.5704
lwrist 21.9096
lhand -50.8888 -18.8851
lfingers 7.12502
lthumb -23.4419 9.70689
rfemur 30.7429 5.00444 15.629
rtibia 36.6561
rfoot -17.0254 29.1648
rtoes 10.7438
lfemur -48.1741 11.5979 -0.0881193
ltibia 25.3405
lfoot -3.14944 23.8291
ltoes -12.286
80
root 2.37655 17.7159 -0.399945 -219.951 11.1455 173.569
lowerback 8.56196 -0.435003 7.95703
upperback 17.7942 3.20625 -1.29311
thorax 15.5971 4.40979 -5.27742
lowerneck 13.7199 2.91582 2.54128
upperneck 11.6156 7.28113 -10.9638
head 1.73 4.55537 -3.89934
rclavicle -6.6568e-014 6.75868e-014
rhumerus -14.2427 10.1878 -72.2589
rradius 80.4793
rwrist -10.0391
rhand -8.72187 16.9591
rfingers 7.12502
rthumb 17.2141 -12.2984
lclavicle -6.6568e-014 6.75868e-014
lhumerus -57.2191 -25.7442 77.9511
lradius 71.9391
lwrist 21.9177
lhand -51.3292 -18.9388
lfingers 7.12502
lthumb -23.8643 9.59861
rfemur 30.3399 5.25768 15.4163
rtibia 37.7212
rfoot -17.5643 29.285
rtoes 11.5989
lfemur -46.629 9.30199 0.832146
ltibia 25.9686
lfoot -0.0926219 25.9398
ltoes -7.19115
81
root 2.36715 17.6526 -0.433494 -220.019 11.0455 173.366
lowerback 8.32202 -0.38973 7.8539
upperback 17.6641 3.18487 -1.35487
thorax 15.5663 4.35461 -5.29414
lowerneck 13.5816 3.00097 2.28858
upperneck 11.6935 7.41589 -11.0898
head 1.78041 4.61727 -3.89196
rclavicle -1.70209e-015 3.18055e-015
rhumerus -15.6581 9.06958 -72.4513
rradius 81.2514
rwrist -9.84979
rhand -8.351 16.701
rfingers 7.12502
rthumb 17.5711 -12.525
lclavicle -1.70209e-015 3.18055e-015
lhumerus -56.9757 -25.0814 78.3467
lradius 71.217
lwrist 21.8426
lhand -52.0954 -18.8171
lfingers 7.12502
lthumb -24.599 9.62238
rfemur 30.0185 5.47206 15.3072
rtibia 38.7506
rfoot -18.2256 29.2558
rtoes 12.1178
lfemur -45.5851 11.4715 -1.32275
ltibia 26.3134
lfoot 6.587 22.712
ltoes -2.60583
82
root 2.36199 17.5896 -0.4611 -220.08 10.8244 173.271
lowerback 8.15233 -0.418955 7.64907
upperback 17.5873 3.08984 -1.37922
thorax 15.5338 4.25888 -5.21429
lowerneck 13.2639 3.12637 1.99622
upperneck 11.7355 7.58337 -11.2586
head 1.84963 4.68093 -3.88536
rclavicle 1.70209e-015 7.95139e-015
rhumerus -16.93 7.94473 -72.5548
rradius 81.7873
rwrist -9.64033
rhand -7.98615 16.4445
rfingers 7.12502
rthumb 17.9222 -12.7497
lclavicle 1.70209e-015 7.95139e-015
lhumerus -56.4458 -24.4079 78.6723
lradius 70.4504
lwrist 21.6104
lhand -52.8099 -18.2853
lfingers 7.12502
lthumb -25.2836 10.0592
rfemur 29.7842 5.59531 15.3226
rtibia 39.6804
rfoot -18.9768 29.0411
rtoes 12.4595
lfemur -44.6417 12.5392 -2.72806
ltibia 26.4293
lfoot 14.5109 19.0172
ltoes -3.10254
83
root 2.3607 17.5372 -0.478303 -220.117 10.5068 173.285
lowerback 8.04195 -0.498468 7.39937
upperback 17.542 2.94435 -1.3615
thorax 15.4883 4.13638 -5.06437
lowerneck 12.8259 3.25849 1.68379
upperneck 11.7515 7.75163 -11.4692
head 1.93018 4.73607 -3.88368
rclavicle 4.16205e-015 -1.35174e-014
rhumerus -18.0462 6.93028 -72.5541
rradius 81.9501
rwrist -9.50843
rhand -7.92061 16.3197
rfingers 7.12502
rthumb 17.9852 -12.8687
lclavicle 4.16205e-015 -1.35174e-014
lhumerus -55.7058 -23.7683 78.9988
lradius 69.7033
lwrist 21.2466
lhand -53.0577 -17.8317
lfingers 7.12502
lthumb -25.5211 10.479
rfemur 29.6205 5.61495 15.4499
rtibia 40.4548
rfoot -19.7046 28.6701
rtoes 12.6333
lfemur -43.724 12.8723 -3.67375
ltibia 26.4173
lfoot 20.9621 14.5785
ltoes -5.39909
84
root 2.36265 17.5012 -0.484964 -220.122 10.1658 173.382
lowerback 7.94714 -0.617061 7.17794
upperback 17.5291 2.76013 -1.33247
thorax 15.4723 4.0066 -4.91714
lowerneck 12.2302 3.40657 1.38747
upperneck 11.8004 7.94751 -11.6951
head 2.04804 4.79481 -3.88242
rclavicle -5.85172e-015 1.11319e-014
rhumerus -18.9988 6.10542 -72.5007
rradius 81.7641
rwrist -9.52056
rhand -8.22527 16.3818
rfingers 7.12502
rthumb 17.6921 -12.8333
lclavicle -5.85172e-015 1.11319e-014
lhumerus -54.771 -23.1893 79.2949
lradius 68.9334
lwrist 20.8098
lhand -52.981 -18.0089
lfingers 7.12502
lthumb -25.4475 10.3123
rfemur 29.5 5.59617 15.7021
rtibia 41.0636
rfoot -20.3674 28.1737
rtoes 12.6387
lfemur -42.822 12.7209 -4.28412
ltibia 26.3596
lfoot 24.4696 10.6701
ltoes -8.39935
85
root 2.36616 17.476 -0.48447 -220.043 9.80648 173.481
lowerback 7.82977 -0.724465 6.91111
upperback 17.5064 2.58435 -1.28606
thorax 15.4562 3.86999 -4.72452
lowerneck 11.5061 3.53961 1.12354
upperneck 11.9715 8.17353 -11.9905
head 2.22839 4.86488 -3.90002
rclavicle -2.93829e-014 2.06736e-014
rhumerus -19.8043 5.47092 -72.3332
rradius 81.2449
rwrist -9.81151
rhand -8.71264 16.5966
rfingers 7.12502
rthumb 17.223 -12.6601
lclavicle -2.93829e-014 2.06736e-014
lhumerus -53.7086 -22.6849 79.6292
lradius 68.1386
lwrist 20.3898
lhand -52.6434 -18.8656
lfingers 7.12502
lthumb -25.1241 9.50131
rfemur 29.3412 5.56643 15.9531
rtibia 41.523
rfoot -20.9872 27.6066
rtoes 12.4655
lfemur -42.0086 12.3422 -4.78742
ltibia 26.3598
lfoot 25.6581 7.4472
ltoes -8.73563
86
root 2.37002 17.4565 -0.478756 -219.887 9.41074 173.589
lowerback 7.69141 -0.824224 6.64408
upperback 17.4954 2.42814 -1.26461
thorax 15.4771 3.74998 -4.55683
lowerneck 10.6381 3.65555 0.94526
upperneck 12.1761 8.38944 -12.2935
head 2.44469 4.92041 -3.92666
rclavicle -2.68608e-014 -7.15625e-015
rhumerus -20.4329 4.99824 -72.0938
rradius 80.4333
rwrist -10.2155
rhand -9.36711 17.0698
rfingers 7.12502
rthumb 16.593 -12.2409
lclavicle -2.68608e-014 -7.15625e-015
lhumerus -52.4907 -22.3658 79.8585
lradius 67.5043
lwrist 19.9518
lhand -52.3017 -20.1882
lfingers 7.12502
lthumb -24.7967 8.22417
rfemur 29.1342 5.48304 16.159
rtibia 41.874
rfoot -21.5721 27.0079
rtoes 12.0494
lfemur -41.299 11.9046 -5.32021
ltibia 26.4271
lfoot 24.8926 4.042
ltoes -10.5125
